<svg width="54" height="55" viewBox="0 0 54 55" fill="none" xmlns="http://www.w3.org/2000/svg">
<g clip-path="url(#clip0_2_122)">
<path d="M38.8125 2.04102H15.1875C13.8453 2.04236 12.5584 2.57616 11.6093 3.52527C10.6601 4.47438 10.1263 5.76127 10.125 7.10352V47.6035C10.1263 48.9458 10.6601 50.2327 11.6093 51.1818C12.5584 52.1309 13.8453 52.6647 15.1875 52.666H38.8125C40.1547 52.6647 41.4416 52.1309 42.3907 51.1818C43.3399 50.2327 43.8737 48.9458 43.875 47.6035V7.10352C43.8737 5.76127 43.3399 4.47438 42.3907 3.52527C41.4416 2.57616 40.1547 2.04236 38.8125 2.04102ZM42.1875 47.6035C42.1875 48.4986 41.8319 49.3571 41.199 49.99C40.566 50.6229 39.7076 50.9785 38.8125 50.9785H15.1875C14.2924 50.9785 13.4339 50.6229 12.801 49.99C12.1681 49.3571 11.8125 48.4986 11.8125 47.6035V7.10352C11.8125 6.20841 12.1681 5.34997 12.801 4.71703C13.4339 4.08409 14.2924 3.72852 15.1875 3.72852H38.8125C39.7076 3.72852 40.566 4.08409 41.199 4.71703C41.8319 5.34997 42.1875 6.20841 42.1875 7.10352V47.6035Z" fill="black"/>
<path d="M28.6875 44.2285H25.3125C24.6412 44.2285 23.9973 44.4952 23.5226 44.9699C23.0479 45.4446 22.7813 46.0884 22.7812 46.7598C22.7813 47.4311 23.0479 48.0749 23.5226 48.5496C23.9973 49.0243 24.6412 49.291 25.3125 49.291H28.6875C29.3588 49.291 30.0027 49.0243 30.4774 48.5496C30.9521 48.0749 31.2188 47.4311 31.2188 46.7598C31.2188 46.0884 30.9521 45.4446 30.4774 44.9699C30.0027 44.4952 29.3588 44.2285 28.6875 44.2285ZM28.6875 47.6035H25.3125C25.0887 47.6035 24.8741 47.5146 24.7159 47.3564C24.5576 47.1982 24.4688 46.9835 24.4688 46.7598C24.4688 46.536 24.5576 46.3214 24.7159 46.1631C24.8741 46.0049 25.0887 45.916 25.3125 45.916H28.6875C28.9113 45.916 29.1259 46.0049 29.2841 46.1631C29.4424 46.3214 29.5312 46.536 29.5312 46.7598C29.5312 46.9835 29.4424 47.1982 29.2841 47.3564C29.1259 47.5146 28.9113 47.6035 28.6875 47.6035Z" fill="black"/>
<path d="M21.0938 5.41602H22.7812V7.10352H21.0938V5.41602Z" fill="black"/>
<path d="M24.4688 5.41602H29.5312V7.10352H24.4688V5.41602Z" fill="black"/>
<path d="M26.4036 23.7311C26.5618 23.8893 26.7764 23.9781 27.0001 23.9781C27.2239 23.9781 27.4385 23.8893 27.5967 23.7311L33.5628 17.7649C34.3483 16.9726 34.7879 15.9014 34.7854 14.7857C34.783 13.67 34.3387 12.6007 33.5498 11.8118C32.7609 11.0229 31.6916 10.5786 30.5759 10.5762C29.4603 10.5737 28.389 11.0133 27.5967 11.7988L27.0001 12.3953L26.4036 11.7988C25.6113 11.0133 24.54 10.5737 23.4244 10.5762C22.3087 10.5786 21.2394 11.0229 20.4505 11.8118C19.6616 12.6007 19.2173 13.67 19.2149 14.7857C19.2124 15.9014 19.652 16.9726 20.4375 17.7649L26.4036 23.7311ZM21.6305 12.9918C21.8656 12.7567 22.1446 12.5703 22.4518 12.443C22.7589 12.3158 23.0881 12.2503 23.4205 12.2503C23.753 12.2503 24.0822 12.3158 24.3893 12.443C24.6964 12.5703 24.9755 12.7567 25.2106 12.9918L26.4036 14.1857C26.5648 14.3382 26.7783 14.4231 27.0001 14.4231C27.222 14.4231 27.4355 14.3382 27.5967 14.1857L28.7897 12.9918C29.2645 12.5171 29.9084 12.2504 30.5798 12.2504C31.2511 12.2504 31.895 12.5171 32.3698 12.9918C32.8445 13.4666 33.1112 14.1105 33.1112 14.7819C33.1112 15.4532 32.8445 16.0971 32.3698 16.5719L27.0001 21.9415L21.6305 16.5719C21.1568 16.0966 20.8907 15.4529 20.8907 14.7819C20.8907 14.1108 21.1568 13.4671 21.6305 12.9918Z" fill="black"/>
<path d="M32.8219 31.1946C32.7479 31.0409 32.6283 30.9136 32.4795 30.8301C32.3307 30.7466 32.1597 30.711 31.9899 30.7281C31.8215 30.7426 31.6613 30.8074 31.5301 30.914C31.3989 31.0207 31.3028 31.1643 31.2542 31.3263L29.6671 36.6149L27.8252 28.0171C27.785 27.8326 27.6841 27.6669 27.5387 27.5465C27.3932 27.4261 27.2115 27.358 27.0228 27.3531C26.8334 27.3464 26.6474 27.4043 26.4953 27.5173C26.3432 27.6303 26.2341 27.7917 26.1858 27.9749L24.4502 34.341L23.5929 31.3398C23.5468 31.1757 23.4521 31.0294 23.3212 30.9202C23.1903 30.811 23.0294 30.744 22.8597 30.7281C22.6901 30.7108 22.5193 30.746 22.3702 30.8288C22.2212 30.9117 22.1011 31.0381 22.0261 31.1913L20.5723 34.103H15.1875V35.7905H21.0938C21.2505 35.7906 21.4043 35.747 21.5376 35.6646C21.671 35.5822 21.7788 35.4642 21.8489 35.324L22.5661 33.8896L23.6571 37.7101C23.7075 37.8864 23.814 38.0415 23.9605 38.1519C24.1069 38.2622 24.2854 38.3219 24.4688 38.3218H24.4738C24.6581 38.3207 24.8369 38.2594 24.9831 38.1471C25.1292 38.0348 25.2345 37.8777 25.283 37.7L26.9021 31.7642L28.7061 40.1856C28.7453 40.3688 28.8443 40.5338 28.9876 40.6545C29.1309 40.7752 29.3103 40.8447 29.4975 40.8522H29.5312C29.7128 40.8522 29.8895 40.7937 30.0351 40.6853C30.1807 40.5769 30.2875 40.4245 30.3396 40.2506L32.2591 33.8499L32.9948 35.3214C33.0646 35.4622 33.1722 35.5806 33.3056 35.6635C33.439 35.7464 33.5929 35.7904 33.75 35.7905H38.8125V34.103H34.2714L32.8219 31.1946Z" fill="black"/>
</g>
<defs>
<clipPath id="clip0_2_122">
<rect width="33.75" height="50.625" fill="white" transform="translate(10.125 2.04102)"/>
</clipPath>
</defs>
</svg>
