<svg width="54" height="55" viewBox="0 0 54 55" fill="none" xmlns="http://www.w3.org/2000/svg">
<g clip-path="url(#clip0_2_157)">
<path d="M43.0563 14.7692C43.9649 8.49757 40.0732 2.52776 33.9689 0.827936C27.8642 -0.871888 21.4471 2.22769 18.9837 8.0657C16.1087 6.09919 12.2987 6.18926 9.52027 8.28976C6.74141 10.3903 5.61537 14.0311 6.7234 17.3332C1.94202 19.2835 -0.790706 24.3438 0.201333 29.4112C1.19293 34.4786 5.63207 38.1357 10.7957 38.1388H11.6955C12.1924 38.1388 12.5952 37.7359 12.5952 37.239C12.5952 36.7421 12.1924 36.3393 11.6955 36.3393H10.7957C6.33766 36.3375 2.5527 33.0732 1.89588 28.6639C1.23863 24.2547 3.90764 20.0286 8.17104 18.7273C8.42235 18.6499 8.62708 18.4667 8.73208 18.226C8.83709 17.9848 8.83138 17.7102 8.71627 17.4738C8.3046 16.6232 8.0924 15.6896 8.09635 14.7446C8.09811 12.2171 9.60989 9.93511 11.9362 8.94746C14.263 7.95982 16.9544 8.45715 18.7742 10.2115C19.0004 10.4289 19.3238 10.5128 19.6269 10.4324C19.9305 10.3525 20.17 10.1201 20.2596 9.81956C21.9489 4.23154 27.7737 0.998402 33.4092 2.51985C39.0451 4.04174 42.4509 9.76684 41.0986 15.4458C41.0318 15.7261 41.1034 16.0213 41.291 16.2397C41.4786 16.4585 41.7598 16.574 42.0467 16.5508C42.128 16.5442 42.2027 16.5442 42.2879 16.5442C47.7542 16.5442 52.1854 20.9754 52.1854 26.4417C52.1854 31.908 47.7542 36.3393 42.2879 36.3393C41.791 36.3393 41.3881 36.7421 41.3881 37.239C41.3881 37.7359 41.791 38.1388 42.2879 38.1388C48.6044 38.1472 53.7864 33.1391 53.9938 26.8261C54.2012 20.5132 49.3596 15.176 43.0563 14.7692Z" fill="black"/>
<path d="M39.5569 43.693C39.5727 43.642 39.5833 43.5898 39.5885 43.537V39.0382C39.5885 35.5599 36.7688 32.7397 33.2901 32.7397C29.8118 32.7397 26.9916 35.5599 26.9916 39.0382V48.0359C26.9916 50.5209 24.9772 52.5348 22.4928 52.5348C20.0083 52.5348 17.9939 50.5209 17.9939 48.0359V37.9727C19.0685 37.5932 19.7886 36.5791 19.7934 35.439V34.0608C20.9304 33.6606 21.9655 33.0156 22.8258 32.1712C24.345 30.6519 25.1965 28.5901 25.1921 26.4413V23.7419C25.1921 22.7481 24.3863 21.9424 23.3925 21.9424H21.593C21.0961 21.9424 20.6932 22.3453 20.6932 22.8422C20.6932 23.3391 21.0961 23.7419 21.593 23.7419H23.3925V26.4413C23.3952 28.1112 22.7335 29.7131 21.5534 30.8945C19.9762 32.4743 17.6806 33.1013 15.5195 32.5429C12.7376 31.8246 10.7943 29.3146 10.7956 26.4413V23.7419H12.5952C13.0921 23.7419 13.495 23.3391 13.495 22.8422C13.495 22.3453 13.0921 21.9424 12.5952 21.9424H10.7956C9.80185 21.9424 8.99609 22.7481 8.99609 23.7419V26.4413C8.99522 29.8743 11.1585 32.9343 14.3948 34.0788V35.439C14.3996 36.5791 15.1197 37.5932 16.1943 37.9727V48.0359C16.1943 51.5147 19.0145 54.3344 22.4928 54.3344C25.9715 54.3344 28.7912 51.5147 28.7912 48.0359V39.0382C28.7912 36.5537 30.8056 34.5393 33.2901 34.5393C35.7746 34.5393 37.789 36.5537 37.789 39.0382V43.537C37.7942 43.5898 37.8048 43.642 37.8206 43.693C36.5698 44.1179 35.8102 45.3854 36.0254 46.6889C36.2407 47.992 37.3676 48.948 38.6887 48.948C40.0099 48.948 41.1368 47.992 41.3521 46.6889C41.5673 45.3854 40.8077 44.1179 39.5569 43.693ZM17.9939 35.439C17.9939 35.9359 17.591 36.3388 17.0941 36.3388C16.5972 36.3388 16.1943 35.9359 16.1943 35.439V34.4892C16.7923 34.5564 17.3959 34.5564 17.9939 34.4892V35.439ZM38.6887 47.1362C38.1918 47.1362 37.789 46.7333 37.789 46.2364C37.789 45.7395 38.1918 45.3366 38.6887 45.3366C39.1856 45.3366 39.5885 45.7395 39.5885 46.2364C39.5885 46.7333 39.1856 47.1362 38.6887 47.1362Z" fill="black"/>
</g>
<defs>
<clipPath id="clip0_2_157">
<rect width="54" height="54" fill="white" transform="translate(0 0.352539)"/>
</clipPath>
</defs>
</svg>
