<svg width="42" height="47" viewBox="0 0 42 47" fill="none" xmlns="http://www.w3.org/2000/svg">
<g clip-path="url(#clip0_2_137)">
<path d="M22.9451 7.59551C23.3911 7.53359 23.7024 7.12175 23.6404 6.67571C23.5785 6.22967 23.1667 5.91845 22.7206 5.98055C22.2746 6.04247 21.9634 6.45431 22.0255 6.90035C22.0874 7.34621 22.4992 7.65743 22.9451 7.59551Z" fill="black"/>
<path d="M8.76004 4.27285C9.15766 4.27285 9.48004 3.95047 9.48004 3.55285V1.39285C9.48004 0.995232 9.15766 0.672852 8.76004 0.672852C8.36242 0.672852 8.04004 0.995232 8.04004 1.39285V3.55285C8.04004 3.95047 8.36242 4.27285 8.76004 4.27285Z" fill="black"/>
<path d="M8.76004 5.71289C8.36242 5.71289 8.04004 6.03527 8.04004 6.43289V8.59289C8.04004 8.99051 8.36242 9.31289 8.76004 9.31289C9.15766 9.31289 9.48004 8.99051 9.48004 8.59289V6.43289C9.48004 6.03527 9.15766 5.71289 8.76004 5.71289Z" fill="black"/>
<path d="M5.15994 5.71246H7.31994C7.71756 5.71246 8.03994 5.39008 8.03994 4.99246C8.03994 4.59484 7.71756 4.27246 7.31994 4.27246H5.15994C4.76232 4.27246 4.43994 4.59484 4.43994 4.99246C4.43994 5.39008 4.76232 5.71246 5.15994 5.71246Z" fill="black"/>
<path d="M10.2 5.71246H12.36C12.7576 5.71246 13.08 5.39008 13.08 4.99246C13.08 4.59484 12.7576 4.27246 12.36 4.27246H10.2C9.80236 4.27246 9.47998 4.59484 9.47998 4.99246C9.47998 5.39008 9.80236 5.71246 10.2 5.71246Z" fill="black"/>
<path d="M37.8265 10.0332H4.17372C1.93848 10.0332 0.120117 11.8516 0.120117 14.0868V36.938C0.120117 39.1739 1.93902 40.9932 4.17498 40.9932H16.4458L15.4172 44.5932H8.04012C7.6425 44.5932 7.32012 44.9156 7.32012 45.3132C7.32012 45.7108 7.6425 46.0332 8.04012 46.0332H34.6801C35.0781 46.0332 35.4001 45.7108 35.4001 45.3132C35.4001 44.9156 35.0781 44.5932 34.6801 44.5932H27.3032L26.275 40.9932H37.8267C40.0619 40.9932 41.8803 39.1748 41.8803 36.9396V14.0868C41.8801 11.8516 40.0618 10.0332 37.8265 10.0332ZM4.17372 11.4732H37.8265C39.268 11.4732 40.4401 12.6457 40.4401 14.0868V34.5132H1.56012V14.0868C1.56012 12.6457 2.73264 11.4732 4.17372 11.4732ZM25.8052 44.5932H16.9147L17.9434 40.9932H24.7771L25.8052 44.5932ZM37.8265 39.5532H4.17498C2.73336 39.5532 1.56012 38.38 1.56012 36.938V35.9532H40.4401V36.9396C40.4401 38.3807 39.268 39.5532 37.8265 39.5532Z" fill="black"/>
<path d="M21.0003 38.8746C21.6083 38.8746 22.1012 38.3817 22.1012 37.7737C22.1012 37.1657 21.6083 36.6729 21.0003 36.6729C20.3923 36.6729 19.8994 37.1657 19.8994 37.7737C19.8994 38.3817 20.3923 38.8746 21.0003 38.8746Z" fill="black"/>
<path d="M5.15994 21.5532H6.59994V22.9932C6.59994 23.3909 6.92232 23.7132 7.31994 23.7132H10.1999C10.5976 23.7132 10.9199 23.3909 10.9199 22.9932V21.5532H12.3599C12.7576 21.5532 13.0799 21.2309 13.0799 20.8332V17.9532C13.0799 17.5556 12.7576 17.2332 12.3599 17.2332H10.9199V15.7932C10.9199 15.3956 10.5976 15.0732 10.1999 15.0732H7.31994C6.92232 15.0732 6.59994 15.3956 6.59994 15.7932V17.2332H5.15994C4.76232 17.2332 4.43994 17.5556 4.43994 17.9532V20.8332C4.43994 21.2309 4.76232 21.5532 5.15994 21.5532ZM5.87994 18.6732H7.31994C7.71756 18.6732 8.03994 18.3509 8.03994 17.9532V16.5132H9.47994V17.9532C9.47994 18.3509 9.80232 18.6732 10.1999 18.6732H11.6399V20.1132H10.1999C9.80232 20.1132 9.47994 20.4356 9.47994 20.8332V22.2732H8.03994V20.8332C8.03994 20.4356 7.71756 20.1132 7.31994 20.1132H5.87994V18.6732Z" fill="black"/>
<path d="M15.9602 22.993H34.6802C35.0782 22.993 35.4002 22.6706 35.4002 22.273V16.513C35.4002 16.1153 35.0782 15.793 34.6802 15.793H15.9602C15.5626 15.793 15.2402 16.1153 15.2402 16.513V22.273C15.2402 22.6706 15.5626 22.993 15.9602 22.993ZM16.6802 17.233H33.9602V21.553H16.6802V17.233Z" fill="black"/>
<path d="M5.16016 26.593C5.16016 26.9907 5.48254 27.313 5.88016 27.313H36.1202C36.5181 27.313 36.8402 26.9907 36.8402 26.593C36.8402 26.1954 36.5181 25.873 36.1202 25.873H5.88016C5.48254 25.873 5.16016 26.1954 5.16016 26.593Z" fill="black"/>
<path d="M28.2002 28.0332H5.88016C5.48254 28.0332 5.16016 28.3556 5.16016 28.7532C5.16016 29.1508 5.48254 29.4732 5.88016 29.4732H28.2002C28.5981 29.4732 28.9202 29.1508 28.9202 28.7532C28.9202 28.3556 28.5981 28.0332 28.2002 28.0332Z" fill="black"/>
<path d="M18.1202 30.1924H5.88016C5.48254 30.1924 5.16016 30.5148 5.16016 30.9124C5.16016 31.31 5.48254 31.6324 5.88016 31.6324H18.1202C18.5181 31.6324 18.8402 31.31 18.8402 30.9124C18.8402 30.5148 18.5181 30.1924 18.1202 30.1924Z" fill="black"/>
</g>
<defs>
<clipPath id="clip0_2_137">
<rect width="41.7602" height="45.36" fill="white" transform="translate(0.120117 0.672852)"/>
</clipPath>
</defs>
</svg>
